# xmcd CD database file
#
# Track frame offsets:
#	150
#	34188
#	64890
#	80245
#	117868
#	142608
#	179155
#	205563
#
# Disc length: 3058 seconds
#
# Revision: 8
# Processed by: cddbd v1.5.2PL0 Copyright (c) Steve Scherf et al.
# Submitted via: CDex 1.70beta2
#
DISCID=6e0bf008
DTITLE=UA - 泥棒
DYEAR=2002
DGENRE=R&B
TTITLE0=記憶喪失
TTITLE1=閃光 (Album Ver.)
TTITLE2=泥棒
TTITLE3=瞬間
TTITLE4=世界
TTITLE5=ブエノスアイレス
TTITLE6=ドア
TTITLE7=彼方
EXTD=YEAR: 2002
EXTT0=
EXTT1=
EXTT2=
EXTT3=
EXTT4=
EXTT5=
EXTT6=
EXTT7=
PLAYORDER=
